PathFileType	4	(X/Y/Z)	pose_F01_0-97.trc
DataRate	CameraRate	NumFrames	NumMarkers	Units	OrigDataRate	OrigDataStartFrame	OrigNumFrames
30	30	11	21	m	30	36	97
Frame#	Time	CHip			RHip			RKnee			RAnkle			RBigToe			RSmallToe			RHeel			LHip			LKnee			LAnkle			LBigToe			LSmallToe			LHeel			Neck			Nose			RShoulder			RElbow			RWrist			LShoulder			LElbow			LWrist			
		X1	Y1	Z1	X2	Y2	Z2	X3	Y3	Z3	X4	Y4	Z4	X5	Y5	Z5	X6	Y6	Z6	X7	Y7	Z7	X8	Y8	Z8	X9	Y9	Z9	X10	Y10	Z10	X11	Y11	Z11	X12	Y12	Z12	X13	Y13	Z13	X14	Y14	Z14	X15	Y15	Z15	X16	Y16	Z16	X17	Y17	Z17	X18	Y18	Z18	X19	Y19	Z19	X20	Y20	Z20	X21	Y21	Z21	
36	1.2	-0.24719656158754164	1.8839698940151661	-0.5003353015108779	-0.26386788549417256	1.8804517360103712	-0.4417565480174453	-0.26564011137657445	1.7344667407805041	-0.394507335578471													-0.2263634532619526	1.8862223539321004	-0.5580362346659338	-0.22455238220407886	1.7333399260711997	-0.5431461791160652	-0.21817032770976838	1.5877752794060591	-0.5355114852036721	-0.2253340397066178	1.5568809127953458	-0.6200132494340382	-0.21296265940572395	1.5663024860680912	-0.6300037072346657	-0.22126081631464847	1.579920400549409	-0.5099281046435503	-0.2372439289209692	2.0528273053989046	-0.5004787928333722	-0.2293947484342906	2.129124361707407	-0.5808454673529098	-0.260097489542577	2.056493719430514	-0.43167741643168545	-0.2693369490372973	1.9679332902989686	-0.3814440666525161	-0.2824411055846031	1.8859717883799938	-0.385858538038904	-0.21629559010799945	2.0510254042045353	-0.5816326227218211	-1.527694959185209	1.8765414765413528	0.8328271914503347	-0.19130793155258302	1.8939153325345552	-0.6299203983004394
37	1.2333333333333334	-0.24603318797640647	1.883590467241489	-0.4971511037201364	-0.26362954837049335	1.8804121551916373	-0.44159557767738544	-0.2656455543679781	1.7346857486242382	-0.39454718701546965													-0.2262233711292258	1.8865910725667858	-0.5579944636842712	-0.22454158869999158	1.7329966985217127	-0.5430858398822525	-0.21665579789137362	1.5880255779532428	-0.5367926444691671	-0.22265970914863217	1.5566369229589556	-0.6183965162767696	-0.21256717846319387	1.5668138978150792	-0.6259373409417527	-0.22126081631464847	1.579920400549409	-0.5099281046435503	-0.2353215102916016	2.05286560084992	-0.5024444917710283	-0.22732718506807703	2.1291398265465427	-0.5829450398027728	-0.26006274209194596	2.0578028510219797	-0.4324462708893408	-0.2702867224137662	1.9682772835557936	-0.384642412408538	-0.283491079210343	1.886168648843282	-0.3891972417398491	-0.21352055554893087	2.0506879654134713	-0.5723124571842166	-1.534786077792841	1.8768260680318807	0.8468536294953901	-0.18246361900947017	1.8987468394219564	-0.639334298180578
38	1.2666666666666666	-0.24418271542510275	1.886251228307714	-0.4998419123363496	-0.2600293890267973	1.8845010345094828	-0.4466682861767606	-0.2656509973593817	1.7349047564679723	-0.39458703845246834													-0.2242252954395789	1.8882242881110978	-0.5604379115327988	-0.22242313899949093	1.7353885031312706	-0.545522728411795	-0.21670465721029544	1.5881279466618574	-0.5367787387048498	-0.22149207663157197	1.5580731049102177	-0.6157385703537758	-0.21222361893353026	1.56741911608557	-0.626757096657262	-0.22126081631464847	1.579920400549409	-0.5099281046435503	-0.23526271978679938	2.0529525907636246	-0.5024640789467959	-0.22534144116147936	2.1279888545069854	-0.5853199143304056	-0.2583004300259033	2.059170343913294	-0.43515716366294804	-0.27029808770433383	1.9721977360116212	-0.3855565460902412	-0.2816833805325294	1.8910433486860343	-0.39192785469408575	-0.21048218504648702	2.0519795066547237	-0.5711369815058588	-1.5462337248198412	1.8793522267566263	0.8657500199693323	-0.17427073572560645	1.9082653243560592	-0.6438196998719355
39	1.3	-0.24177317351503702	1.8847921740892895	-0.5018111309012457	-0.25763290560256763	1.8834025312061486	-0.4486962100423775	-0.2638574646096292	1.7359815300129975	-0.39676679382821245													-0.2238543842490635	1.8883974642042067	-0.5604202409436158	-0.22173747085808637	1.7332669642092378	-0.5460488654977341	-0.21607863741284117	1.5879084638501604	-0.5376736893936501	-0.22304671999522369	1.558848045181182	-0.6227362192640787	-0.2130497840127441	1.5669308025457653	-0.6300705388845642	-0.22126081631464847	1.579920400549409	-0.5099281046435503	-0.2333133963313911	2.0518140951281527	-0.5047631031793969	-0.21928174457725674	2.1244256766880762	-0.5907902146599088	-0.2564021018574061	2.0580742119699953	-0.43746992315607885	-0.26849530222320467	1.9697670075390157	-0.38730697558006655	-0.2817528903281601	1.892195386614625	-0.3923066429554254	-0.2075812760922855	2.0504029133982433	-0.5704747260984571	-1.5422578261845445	1.8781039528760746	0.8588980224102455	-0.3246875368305775	1.9056899845657587	-0.508047280188594
40	1.3333333333333333	-0.24018543494187025	1.887644530726551	-0.5045783533490144	-0.25616560154480167	1.886073426863358	-0.45151924123507653	-0.2620639318598768	1.7370583035580227	-0.3989465492039566													-0.2212906763480846	1.8898867819639085	-0.559883218709284	-0.2208676063228871	1.739730594090961	-0.5477183320220482	-0.21638362578467735	1.5899783897493187	-0.5373532365607282	-0.22540041547237638	1.5599003468300388	-0.6205824176207175	-0.2133479667315362	1.5683094966803925	-0.6300109117352896	-0.22126081631464847	1.579920400549409	-0.5099281046435503	-0.2313378161218794	2.0519066812404185	-0.5068983223907552	-0.21717877909457278	2.123346629764819	-0.5932982508537622	-0.2573317030398441	2.059555679863462	-0.4411468543218453	-0.26765064089463597	1.9698232539482206	-0.39265431573515563	-0.28174863469056366	1.8886603320451563	-0.39198537129038474	-0.2045215784366853	2.050334175273029	-0.5696620818834756	-1.5426902872804606	1.8783491863506243	0.8595794141836326	-0.4751043379355485	1.9031146447754583	-0.37227486050525244
41	1.3666666666666667	-0.23631289295208072	1.8863142325732924	-0.5087872390574313	-0.25413591400842295	1.8863367620763751	-0.45350293707657285	-0.2619697555489685	1.736707289303203	-0.39901040265225834													-0.22022690925980096	1.8880242109361798	-0.5650754596725748	-0.2189606528711031	1.7391574478887908	-0.5497589574233241	-0.2167671859358949	1.5885449426636618	-0.5367980241101236	-0.22359191154796004	1.5589361907863513	-0.6222778763397562	-0.213597399383204	1.5699768518532167	-0.629834376014715	-0.22126081631464847	1.579920400549409	-0.5099281046435503	-0.22732848450275872	2.051993207888488	-0.5113223867750829	-0.21504971072137816	2.123392275397611	-0.5955163224096475	-0.25255054079399225	2.0608486629947613	-0.44299691548909537	-0.26384627410781214	1.9735495010530375	-0.38979399259649167	-0.2801711298061851	1.8948828933444564	-0.39531671262840634	-0.2014606953668819	2.0492271122676344	-0.5772283850281044	-1.5259518984049945	1.8791817948709015	0.830226574044548	-0.6255211390405196	1.9005393049851578	-0.23650244082191085
42	1.4	-0.23425525729965607	1.8888465696250887	-0.5115329927913657	-0.2540889631166223	1.885682245973408	-0.45378540041832865	-0.2609453291968115	1.7383857494899098	-0.404886215988027													-0.21812652817540637	1.890366002026755	-0.5677795225287565	-0.2161069706977997	1.7386381108135882	-0.5527167129920373	-0.2161470830444807	1.5878880717403823	-0.5375680237538002	-0.22425522332434106	1.5589802262085577	-0.6173583198432763	-0.2151913643879947	1.569857603340314	-0.628125380010102	-0.22126081631464847	1.579920400549409	-0.5099281046435503	-0.22528487482691553	2.052068177075298	-0.513536190020303	-0.2111203250187214	2.1184443373440565	-0.5991293123559568	-0.25151501079525745	2.059766192918505	-0.44760312399883134	-0.26260004071152293	1.9707169592899842	-0.39379422416007165	-0.27825647994907493	1.8947122954603466	-0.3975867288320443	-0.1983619210456964	2.050454018669386	-0.5763797536840797	-1.5309151862684502	1.88395509381593	0.8373826826964516	-0.7759379401454907	1.8979639651948572	-0.10073002113856933
43	1.4333333333333333	-0.23207045586404448	1.887645961419647	-0.5134229348233256	-0.25019744933893795	1.883475901324661	-0.45756873881716137	-0.2601036806654795	1.7386022484661685	-0.4104271699734447													-0.2158539726522913	1.8886551277675458	-0.5698298888265884	-0.21438265197081027	1.7381029049758725	-0.5546258496236477	-0.21848131152458336	1.5898336074450978	-0.5350063915990212	-0.22533081942947278	1.559185696209595	-0.6205571588358602	-0.21562477473846126	1.5691042633278194	-0.6276106550009758	-0.22126081631464847	1.579920400549409	-0.5099281046435503	-0.22043079710324956	2.052005434051452	-0.5149484760302653	-0.20703754229508228	2.1183033519037395	-0.6035746433776588	-0.24577918915242736	2.0585366095320765	-0.45340299336802536	-0.2571744491332759	1.968778990813251	-0.4001642247601134	-0.27675942937182346	1.897551260280636	-0.4007983264422334	-0.19627654822521853	2.050454474530118	-0.5785033101373191	-1.5280298451093763	1.8810926813358797	0.8328293027094531	-0.9263547412504617	1.8953886254045567	0.0350423985447722
44	1.4666666666666666	-0.23104688310474394	1.8855913552478092	-0.5183806893071126	-0.2482707863251683	1.8810192060279285	-0.4595585330427061	-0.2573793734691857	1.7357635447668394	-0.40857454391037246													-0.21192045665760206	1.888269223321124	-0.574290292340888	-0.21558011882817218	1.7383679962060947	-0.5574926398267687	-0.21695738705197587	1.5870441482889595	-0.5360357064553489	-0.2215847357661083	1.5588710876772731	-0.6158107191614668	-0.21235046539532879	1.5680281327127064	-0.626763135712141	-0.22126081631464847	1.579920400549409	-0.5099281046435503	-0.21932434607604268	2.0521903428808725	-0.5201503583833743	-0.20297936127296282	2.1170820519040565	-0.6074438776513098	-0.24391020345781347	2.0574089237311903	-0.4556933313984579	-0.25525002227440535	1.969052256269124	-0.4024203859317788	-0.2714472130995764	1.8912834678445885	-0.4001529591883517	-0.19515714105885432	2.0507196012345927	-0.5838729797092291	-1.5311111125088934	1.8898969315876908	0.8327133128036014	-1.0767715423554327	1.8928132856142563	0.17081481822811384
45	1.5	-0.23037140623032829	1.88668303484662	-0.5158837633390466	-0.24647037194573682	1.883759018779712	-0.46224193413224673	-0.257372663420522	1.736264521689865	-0.408696068566632													-0.2101348434034984	1.8899609374132187	-0.5769367335002827	-0.21385223679001258	1.738036951653308	-0.5595010313857819	-0.21713495400362465	1.5877213154096843	-0.5363316988788531	-0.22344429062231308	1.5583399961029996	-0.6222939973452756	-0.21412141706298388	1.5675079848313598	-0.633246773170486	-0.22126081631464847	1.579920400549409	-0.5099281046435503	-0.21920938282301117	2.0521761050963576	-0.5202648867489018	-0.20088394963704848	2.1170724965965264	-0.6096999228069352	-0.2438361615957341	2.057415855857766	-0.4558190454319397	-0.25435521033865255	1.972668643103645	-0.4006929128009958	-0.2699819561342238	1.894961267493665	-0.40327389489475557	-0.1930315533262311	2.049645607023091	-0.5856296861889023	-1.5092143378057201	1.8868710080339952	0.7953111358347732	-1.2271883434604036	1.8902379458239558	0.3065872379114553
46	1.5333333333333334	-0.22904382748053767	1.889287656736471	-0.5214614210978655	-0.24423902142253873	1.885823481223504	-0.46490269410293156	-0.25505296668333327	1.7359572587213412	-0.4111688407268427													-0.2106432434581099	1.8915519393456008	-0.5801528274711055	-0.21591587192433617	1.7399137437924184	-0.5659831813528138	-0.2177535827983545	1.5887780910000988	-0.54005437995552	-0.22222459737910555	1.5574285774416767	-0.619028745725402	-0.2131415868837193	1.5678196611022062	-0.6296994523217725	-0.22126081631464847	1.579920400549409	-0.5099281046435503	-0.21725387383560948	2.0522290093196554	-0.5224143594800076	-0.2017287288147425	2.1160683673682033	-0.6127880593691208	-0.24193775120484484	2.0562194627848176	-0.457364531081847	-0.25221056401185615	1.9739266584309143	-0.40241128660007724	-0.26717022155779746	1.8975122328370249	-0.405233718049155	-0.19283031657606242	2.0509557244044223	-0.5856478846176137	-1.4628126818874896	1.889506641722366	0.7151718253320969	-1.2254284052450617	1.907680325999946	0.2998849656574792
